<svg width="166" height="36" viewBox="0 0 166 36" fill="none" xmlns="http://www.w3.org/2000/svg">
<g clip-path="url(#clip0_3_22)">
<mask id="mask0_3_22" style="mask-type:luminance" maskUnits="userSpaceOnUse" x="0" y="2" width="32" height="32">
<path d="M32 2H0V34H32V2Z" fill="white"/>
</mask>
<g mask="url(#mask0_3_22)">
<path fill-rule="evenodd" clip-rule="evenodd" d="M16 2H0L16 18H0L16 34H32L16 18H32L16 2Z" fill="white"/>
</g>
</g>
<path d="M49.016 11.96V16.16H54.656V18.824H49.016V23.264H55.376V26H45.656V9.224H55.376V11.96H49.016ZM65.7734 26L63.0374 21.872L60.6134 26H57.0134L61.3574 19.328L56.9654 12.704H60.7574L63.4694 16.808L65.9174 12.704H69.5174L65.1494 19.328L69.5654 26H65.7734ZM70.5264 19.304C70.5264 17.96 70.7904 16.768 71.3184 15.728C71.8624 14.688 72.5904 13.888 73.5024 13.328C74.4304 12.768 75.4624 12.488 76.5984 12.488C77.5904 12.488 78.4544 12.688 79.1904 13.088C79.9424 13.488 80.5424 13.992 80.9904 14.6V12.704H84.3744V26H80.9904V24.056C80.5584 24.68 79.9584 25.2 79.1904 25.616C78.4384 26.016 77.5664 26.216 76.5744 26.216C75.4544 26.216 74.4304 25.928 73.5024 25.352C72.5904 24.776 71.8624 23.968 71.3184 22.928C70.7904 21.872 70.5264 20.664 70.5264 19.304ZM80.9904 19.352C80.9904 18.536 80.8304 17.84 80.5104 17.264C80.1904 16.672 79.7584 16.224 79.2144 15.92C78.6704 15.6 78.0864 15.44 77.4624 15.44C76.8384 15.44 76.2624 15.592 75.7344 15.896C75.2064 16.2 74.7744 16.648 74.4384 17.24C74.1184 17.816 73.9584 18.504 73.9584 19.304C73.9584 20.104 74.1184 20.808 74.4384 21.416C74.7744 22.008 75.2064 22.464 75.7344 22.784C76.2784 23.104 76.8544 23.264 77.4624 23.264C78.0864 23.264 78.6704 23.112 79.2144 22.808C79.7584 22.488 80.1904 22.04 80.5104 21.464C80.8304 20.872 80.9904 20.168 80.9904 19.352ZM104.168 12.512C105.8 12.512 107.112 13.016 108.104 14.024C109.112 15.016 109.616 16.408 109.616 18.2V26H106.256V18.656C106.256 17.616 105.992 16.824 105.464 16.28C104.936 15.72 104.216 15.44 103.304 15.44C102.392 15.44 101.664 15.72 101.12 16.28C100.592 16.824 100.328 17.616 100.328 18.656V26H96.968V18.656C96.968 17.616 96.704 16.824 96.176 16.28C95.648 15.72 94.928 15.44 94.016 15.44C93.088 15.44 92.352 15.72 91.808 16.28C91.28 16.824 91.016 17.616 91.016 18.656V26H87.656V12.704H91.016V14.312C91.448 13.752 92 13.312 92.672 12.992C93.36 12.672 94.112 12.512 94.928 12.512C95.968 12.512 96.896 12.736 97.712 13.184C98.528 13.616 99.16 14.24 99.608 15.056C100.04 14.288 100.664 13.672 101.48 13.208C102.312 12.744 103.208 12.512 104.168 12.512ZM127.132 26H123.772L116.164 14.504V26H112.804V9.224H116.164L123.772 20.744V9.224H127.132V26ZM142.813 19.064C142.813 19.544 142.781 19.976 142.717 20.36H132.997C133.077 21.32 133.413 22.072 134.005 22.616C134.597 23.16 135.325 23.432 136.189 23.432C137.437 23.432 138.325 22.896 138.853 21.824H142.477C142.093 23.104 141.357 24.16 140.269 24.992C139.181 25.808 137.845 26.216 136.261 26.216C134.981 26.216 133.829 25.936 132.805 25.376C131.797 24.8 131.005 23.992 130.429 22.952C129.869 21.912 129.589 20.712 129.589 19.352C129.589 17.976 129.869 16.768 130.429 15.728C130.989 14.688 131.773 13.888 132.781 13.328C133.789 12.768 134.949 12.488 136.261 12.488C137.525 12.488 138.653 12.76 139.645 13.304C140.653 13.848 141.429 14.624 141.973 15.632C142.533 16.624 142.813 17.768 142.813 19.064ZM139.333 18.104C139.317 17.24 139.005 16.552 138.397 16.04C137.789 15.512 137.045 15.248 136.165 15.248C135.333 15.248 134.629 15.504 134.053 16.016C133.493 16.512 133.149 17.208 133.021 18.104H139.333ZM150.353 26.216C149.265 26.216 148.289 26.024 147.425 25.64C146.561 25.24 145.873 24.704 145.361 24.032C144.865 23.36 144.593 22.616 144.545 21.8H147.929C147.993 22.312 148.241 22.736 148.673 23.072C149.121 23.408 149.673 23.576 150.329 23.576C150.969 23.576 151.465 23.448 151.817 23.192C152.185 22.936 152.369 22.608 152.369 22.208C152.369 21.776 152.145 21.456 151.697 21.248C151.265 21.024 150.569 20.784 149.609 20.528C148.617 20.288 147.801 20.04 147.161 19.784C146.537 19.528 145.993 19.136 145.529 18.608C145.081 18.08 144.857 17.368 144.857 16.472C144.857 15.736 145.065 15.064 145.481 14.456C145.913 13.848 146.521 13.368 147.305 13.016C148.105 12.664 149.041 12.488 150.113 12.488C151.697 12.488 152.961 12.888 153.905 13.688C154.849 14.472 155.369 15.536 155.465 16.88H152.249C152.201 16.352 151.977 15.936 151.577 15.632C151.193 15.312 150.673 15.152 150.017 15.152C149.409 15.152 148.937 15.264 148.601 15.488C148.281 15.712 148.121 16.024 148.121 16.424C148.121 16.872 148.345 17.216 148.793 17.456C149.241 17.68 149.937 17.912 150.881 18.152C151.841 18.392 152.633 18.64 153.257 18.896C153.881 19.152 154.417 19.552 154.865 20.096C155.329 20.624 155.569 21.328 155.585 22.208C155.585 22.976 155.369 23.664 154.937 24.272C154.521 24.88 153.913 25.36 153.113 25.712C152.329 26.048 151.409 26.216 150.353 26.216ZM162.256 15.464V21.896C162.256 22.344 162.36 22.672 162.568 22.88C162.792 23.072 163.16 23.168 163.672 23.168H165.232V26H163.12C160.288 26 158.872 24.624 158.872 21.872V15.464H157.288V12.704H158.872V9.416H162.256V12.704H165.232V15.464H162.256Z" fill="white"/>
<defs>
<clipPath id="clip0_3_22">
<rect width="32" height="32" fill="white" transform="translate(0 2)"/>
</clipPath>
</defs>
</svg>
